# xmcd CD database file
#
# Track frame offsets:
#	150
#	8337
#	31245
#	65522
#	85712
#	99375
#	111710
#	128335
#	143640
#	150082
#
# Disc length: 2205 seconds
#
# Revision: 0
# Processed by: cddbd v1.5.2PL0 Copyright (c) Steve Scherf et al.
# Submitted via: CDex 1.51
#
DISCID=68089b0a
DTITLE=Andreas Vollenweider - White Winds (Seeker's Journey)
DYEAR=1984
DGENRE=New Age
TTITLE0=The white winds/The white boat (First View)
TTITLE1=Hall of the stairs/Hall of the mosaics (Meeting you)
TTITLE2=The glass hall (Choose the crystal)/The play of the five balls/The five Planets/Canopy Choir
TTITLE3=The Woman And The Stone
TTITLE4=The Stone (close up)
TTITLE5=Phases of the three moons
TTITLE6=Flight Feet and Root Hands
TTITLE7=Brothership
TTITLE8=Sisterseed
TTITLE9=Trilogy (at The White Magic Gardens) - The White Winds
EXTD=YEAR: 1984
EXTT0=
EXTT1=
EXTT2=
EXTT3=
EXTT4=
EXTT5=
EXTT6=
EXTT7=
EXTT8=
EXTT9=
PLAYORDER=
